<svg width="16" height="17" viewBox="0 0 16 17" fill="none" xmlns="http://www.w3.org/2000/svg">
<g id="CaretRight">
<path id="Vector" d="M11.3538 8.85414L6.35375 13.8541C6.28382 13.9241 6.1947 13.9718 6.09765 13.9912C6.00061 14.0105 5.90002 14.0006 5.8086 13.9627C5.71719 13.9248 5.63908 13.8607 5.58414 13.7784C5.5292 13.6961 5.49992 13.5993 5.5 13.5004V3.50039C5.49992 3.40145 5.5292 3.3047 5.58414 3.2224C5.63908 3.14011 5.71719 3.07596 5.8086 3.03808C5.90002 3.00021 6.00061 2.9903 6.09765 3.00963C6.1947 3.02895 6.28382 3.07664 6.35375 3.14664L11.3538 8.14664C11.4002 8.19308 11.4371 8.24822 11.4623 8.30892C11.4874 8.36962 11.5004 8.43469 11.5004 8.50039C11.5004 8.5661 11.4874 8.63117 11.4623 8.69186C11.4371 8.75256 11.4002 8.80771 11.3538 8.85414Z" fill="#C4F683"/>
</g>
</svg>
