<svg width="20" height="21" viewBox="0 0 20 21" fill="none" xmlns="http://www.w3.org/2000/svg">
<g id="User">
<path id="Vector" d="M18.3111 16.9062C17.24 15.0262 15.5674 13.5614 13.5627 12.7476C14.5596 11.9999 15.296 10.9574 15.6676 9.76793C16.0392 8.57844 16.0271 7.30218 15.633 6.11996C15.2389 4.93773 14.4829 3.90946 13.4719 3.18081C12.461 2.45216 11.2464 2.06006 10.0002 2.06006C8.75401 2.06006 7.53942 2.45216 6.52847 3.18081C5.51752 3.90946 4.76146 4.93773 4.36738 6.11996C3.9733 7.30218 3.96119 8.57844 4.33276 9.76793C4.70433 10.9574 5.44075 11.9999 6.43769 12.7476C4.43294 13.5614 2.76038 15.0262 1.68925 16.9062C1.62288 17.0129 1.57864 17.1319 1.55917 17.256C1.5397 17.3802 1.54539 17.507 1.57591 17.6289C1.60642 17.7508 1.66114 17.8653 1.7368 17.9657C1.81247 18.066 1.90753 18.1501 2.01635 18.213C2.12517 18.2759 2.24552 18.3162 2.37025 18.3317C2.49497 18.3471 2.62153 18.3373 2.74239 18.3028C2.86325 18.2684 2.97595 18.21 3.07379 18.1311C3.17162 18.0522 3.2526 17.9545 3.31191 17.8437C4.72753 15.3968 7.22753 13.9374 10.0002 13.9374C12.7728 13.9374 15.2728 15.3976 16.6885 17.8437C16.817 18.0503 17.0209 18.1989 17.2569 18.258C17.493 18.3171 17.7428 18.2821 17.9536 18.1603C18.1643 18.0386 18.3194 17.8396 18.3861 17.6056C18.4529 17.3715 18.426 17.1207 18.3111 16.9062ZM5.93769 7.9999C5.93769 7.19642 6.17595 6.41097 6.62234 5.7429C7.06874 5.07482 7.70321 4.55412 8.44554 4.24664C9.18786 3.93916 10.0047 3.85871 10.7927 4.01546C11.5808 4.17221 12.3047 4.55913 12.8728 5.12728C13.441 5.69543 13.8279 6.4193 13.9846 7.20735C14.1414 7.9954 14.0609 8.81223 13.7534 9.55455C13.446 10.2969 12.9253 10.9314 12.2572 11.3777C11.5891 11.8241 10.8037 12.0624 10.0002 12.0624C8.92313 12.0612 7.89053 11.6328 7.12894 10.8712C6.36734 10.1096 5.93893 9.07696 5.93769 7.9999Z" fill="#141F58"/>
</g>
</svg>
