<svg width="20" height="20" viewBox="0 0 20 20" fill="none" xmlns="http://www.w3.org/2000/svg">
<g id="info-custom-fill">
<path id="Vector" fill-rule="evenodd" clip-rule="evenodd" d="M10 16.2502C13.4518 16.2502 16.25 13.452 16.25 10.0002C16.25 6.54846 13.4518 3.75024 10 3.75024C6.54822 3.75024 3.75 6.54846 3.75 10.0002C3.75 13.452 6.54822 16.2502 10 16.2502ZM11.1158 13.2088L11.2156 12.8008C11.164 12.8251 11.0807 12.8528 10.9665 12.8844C10.852 12.9159 10.7489 12.932 10.6583 12.932C10.4654 12.932 10.3295 12.9004 10.2507 12.8368C10.1724 12.7732 10.1333 12.6537 10.1333 12.4785C10.1333 12.4091 10.1451 12.3057 10.1697 12.1703C10.1936 12.034 10.2211 11.9129 10.2516 11.8069L10.6242 10.4878C10.6607 10.3668 10.6857 10.2337 10.6992 10.0884C10.7129 9.94349 10.7193 9.84209 10.7193 9.78454C10.7193 9.50638 10.6218 9.28066 10.4268 9.10653C10.2317 8.93253 9.95393 8.84553 9.59396 8.84553C9.39365 8.84553 9.18188 8.88113 8.95776 8.95225C8.73363 9.02318 8.49933 9.10864 8.25421 9.20845L8.15415 9.61675C8.22719 9.58973 8.31419 9.56067 8.41598 9.53058C8.51732 9.50062 8.61674 9.48513 8.71347 9.48513C8.91096 9.48513 9.04399 9.5188 9.1137 9.58512C9.18342 9.65164 9.21844 9.76994 9.21844 9.93908C9.21844 10.0326 9.20736 10.1365 9.18438 10.2494C9.16172 10.3631 9.13342 10.4832 9.10013 10.61L8.72595 11.9344C8.69266 12.0736 8.66834 12.1981 8.65304 12.3087C8.63786 12.4191 8.63057 12.5275 8.63057 12.6329C8.63057 12.9051 8.73114 13.1294 8.93222 13.3065C9.13329 13.4829 9.41523 13.5717 9.77769 13.5717C10.0137 13.5717 10.2209 13.5408 10.3992 13.4788C10.5773 13.4169 10.8164 13.327 11.1158 13.2088ZM11.0495 7.85045C11.2235 7.68906 11.3101 7.49278 11.3101 7.26296C11.3101 7.03365 11.2236 6.83699 11.0495 6.67355C10.8758 6.51057 10.6666 6.42882 10.4219 6.42882C10.1765 6.42882 9.96635 6.51037 9.79107 6.67355C9.61579 6.83699 9.52796 7.03359 9.52796 7.26296C9.52796 7.49278 9.61579 7.689 9.79107 7.85045C9.96667 8.01241 10.1764 8.09346 10.4219 8.09346C10.6666 8.09346 10.8758 8.01241 11.0495 7.85045Z" fill="#CDD0D5"/>
</g>
</svg>
