<svg width="20" height="21" viewBox="0 0 20 21" fill="none" xmlns="http://www.w3.org/2000/svg">
<g id="BookmarkSimple">
<path id="Vector" d="M14.375 3H5.625C5.29348 3 4.97554 3.1317 4.74112 3.36612C4.5067 3.60054 4.375 3.91848 4.375 4.25V18C4.37506 18.1115 4.40496 18.221 4.46161 18.3171C4.51826 18.4132 4.59959 18.4924 4.69716 18.5464C4.79473 18.6005 4.90498 18.6274 5.01648 18.6245C5.12798 18.6215 5.23666 18.5888 5.33125 18.5297L10 15.6117L14.6695 18.5297C14.7641 18.5886 14.8727 18.6212 14.9841 18.624C15.0955 18.6268 15.2056 18.5998 15.303 18.5458C15.4005 18.4918 15.4817 18.4127 15.5383 18.3167C15.5949 18.2208 15.6249 18.1114 15.625 18V4.25C15.625 3.91848 15.4933 3.60054 15.2589 3.36612C15.0245 3.1317 14.7065 3 14.375 3ZM14.375 16.8727L10.3305 14.3453C10.2311 14.2832 10.1164 14.2503 9.99922 14.2503C9.88208 14.2503 9.7673 14.2832 9.66797 14.3453L5.625 16.8727V4.25H14.375V16.8727Z" fill="#0045AC"/>
</g>
</svg>
