<svg width="20" height="20" viewBox="0 0 20 20" fill="none" xmlns="http://www.w3.org/2000/svg">
<g id="Plus">
<path id="Vector" d="M16.5 10.0002C16.5 10.1384 16.4451 10.2709 16.3475 10.3685C16.2498 10.4662 16.1173 10.5211 15.9792 10.5211H10.7708V15.7294C10.7708 15.8675 10.716 16 10.6183 16.0977C10.5206 16.1954 10.3881 16.2502 10.25 16.2502C10.1119 16.2502 9.97939 16.1954 9.88172 16.0977C9.78404 16 9.72917 15.8675 9.72917 15.7294V10.5211H4.52083C4.3827 10.5211 4.25022 10.4662 4.15255 10.3685C4.05487 10.2709 4 10.1384 4 10.0002C4 9.86211 4.05487 9.72963 4.15255 9.63196C4.25022 9.53428 4.3827 9.47941 4.52083 9.47941H9.72917V4.27108C9.72917 4.13294 9.78404 4.00047 9.88172 3.90279C9.97939 3.80512 10.1119 3.75024 10.25 3.75024C10.3881 3.75024 10.5206 3.80512 10.6183 3.90279C10.716 4.00047 10.7708 4.13294 10.7708 4.27108V9.47941H15.9792C16.1173 9.47941 16.2498 9.53428 16.3475 9.63196C16.4451 9.72963 16.5 9.86211 16.5 10.0002Z" fill="white"/>
</g>
</svg>
