<svg width="20" height="21" viewBox="0 0 20 21" fill="none" xmlns="http://www.w3.org/2000/svg">
<g id="House">
<path id="Vector" d="M17.5 9.52699V16.7496C17.5 17.0812 17.3683 17.3991 17.1339 17.6335C16.8995 17.868 16.5815 17.9996 16.25 17.9996H13.125C12.7935 17.9996 12.4755 17.868 12.2411 17.6335C12.0067 17.3991 11.875 17.0812 11.875 16.7496V13.6246C11.875 13.4589 11.8092 13.2999 11.6919 13.1827C11.5747 13.0655 11.4158 12.9996 11.25 12.9996H8.75C8.58424 12.9996 8.42527 13.0655 8.30806 13.1827C8.19085 13.2999 8.125 13.4589 8.125 13.6246V16.7496C8.125 17.0812 7.9933 17.3991 7.75888 17.6335C7.52446 17.868 7.20652 17.9996 6.875 17.9996H3.75C3.41848 17.9996 3.10054 17.868 2.86612 17.6335C2.6317 17.3991 2.5 17.0812 2.5 16.7496V9.52699C2.49997 9.35399 2.53586 9.18287 2.60538 9.02445C2.67491 8.86604 2.77656 8.72378 2.90391 8.60668L9.15391 2.7098L9.1625 2.70121C9.39261 2.49194 9.69248 2.37598 10.0035 2.37598C10.3146 2.37598 10.6144 2.49194 10.8445 2.70121C10.8472 2.70427 10.8501 2.70714 10.8531 2.7098L17.1031 8.60668C17.2292 8.7244 17.3295 8.86693 17.3978 9.02532C17.4661 9.1837 17.5009 9.35451 17.5 9.52699Z" fill="#668294"/>
</g>
</svg>
