<svg width="20" height="21" viewBox="0 0 20 21" fill="none" xmlns="http://www.w3.org/2000/svg">
<g id="CaretRight">
<path id="Vector" d="M14.1922 10.9417L7.94219 17.1917C7.85478 17.2792 7.74337 17.3388 7.62207 17.363C7.50076 17.3871 7.37502 17.3747 7.26076 17.3274C7.14649 17.2801 7.04884 17.1999 6.98017 17.097C6.91151 16.9941 6.8749 16.8732 6.875 16.7495V4.24952C6.8749 4.12583 6.91151 4.0049 6.98017 3.90203C7.04884 3.79916 7.14649 3.71897 7.26076 3.67163C7.37502 3.62428 7.50076 3.6119 7.62207 3.63606C7.74337 3.66022 7.85478 3.71982 7.94219 3.80733L14.1922 10.0573C14.2503 10.1154 14.2964 10.1843 14.3279 10.2602C14.3593 10.3361 14.3755 10.4174 14.3755 10.4995C14.3755 10.5817 14.3593 10.663 14.3279 10.7389C14.2964 10.8147 14.2503 10.8837 14.1922 10.9417Z" fill="#668294"/>
</g>
</svg>
